<svg width="16" height="16" viewBox="0 0 16 16" fill="none" xmlns="http://www.w3.org/2000/svg">
<g clip-path="url(#clip0_11_2)">
<rect width="16" height="16" rx="3" fill="#4198FF"/>
<path d="M8.78691 12.8667C7.78679 12.8667 6.92761 12.6671 6.20934 12.2679C5.50017 11.8596 4.95465 11.288 4.57279 10.5531C4.19093 9.80913 4 8.93361 4 7.92653C4 7.17349 4.1091 6.49756 4.32731 5.89876C4.54552 5.29088 4.85919 4.77373 5.26833 4.34731C5.67746 3.91182 6.17752 3.58066 6.7685 3.35384C7.36856 3.11795 8.04137 3 8.78691 3C9.28696 3 9.77793 3.06351 10.2598 3.19053C10.7417 3.31755 11.1645 3.499 11.5281 3.7349C11.7191 3.85284 11.8463 3.99801 11.91 4.17039C11.9736 4.3337 11.9873 4.49701 11.9509 4.66032C11.9145 4.81456 11.8373 4.94612 11.7191 5.05499C11.61 5.16386 11.469 5.22737 11.2963 5.24552C11.1326 5.25459 10.9508 5.19562 10.7508 5.0686C10.4689 4.88714 10.1643 4.75559 9.83703 4.67393C9.50972 4.59228 9.17786 4.55145 8.84146 4.55145C8.19593 4.55145 7.65041 4.683 7.20491 4.94611C6.7594 5.20923 6.423 5.59028 6.1957 6.08929C5.96841 6.58829 5.85476 7.20071 5.85476 7.92653C5.85476 8.64328 5.96841 9.25569 6.1957 9.76377C6.423 10.2718 6.7594 10.6574 7.20491 10.9206C7.65041 11.1837 8.19593 11.3152 8.84146 11.3152C9.18695 11.3152 9.5279 11.2744 9.8643 11.1927C10.2007 11.102 10.5189 10.9659 10.819 10.7845C11.019 10.6665 11.1963 10.6166 11.3508 10.6348C11.5145 10.6438 11.6509 10.6983 11.76 10.7981C11.8691 10.8979 11.9418 11.0249 11.9782 11.1791C12.0145 11.3243 12.0055 11.4785 11.9509 11.6418C11.8964 11.7961 11.7872 11.9322 11.6236 12.0501C11.2599 12.3132 10.8235 12.5174 10.3144 12.6625C9.8143 12.7986 9.30515 12.8667 8.78691 12.8667Z" fill="white"/>
</g>
<defs>
<clipPath id="clip0_11_2">
<rect width="16" height="16" fill="white"/>
</clipPath>
</defs>
</svg>
