<svg width="300" height="300" viewBox="0 0 300 300" fill="none" xmlns="http://www.w3.org/2000/svg">
<rect width="300" height="300" rx="6" fill="#4198FF"/>
<path d="M164.755 242C146.002 242 129.893 238.257 116.425 230.772C103.128 223.117 92.8998 212.4 85.7399 198.621C78.58 184.671 75 168.255 75 149.372C75 135.253 77.0457 122.579 81.1371 111.352C85.2284 99.954 91.1098 90.2575 98.7811 82.2621C106.452 74.0965 115.828 67.8874 126.909 63.6345C138.161 59.2115 150.776 57 164.755 57C174.131 57 183.336 58.1908 192.371 60.5724C201.406 62.954 209.333 66.3563 216.152 70.7793C219.732 72.9908 222.119 75.7126 223.312 78.9448C224.506 82.0069 224.761 85.069 224.079 88.131C223.398 91.023 221.949 93.4897 219.732 95.531C217.687 97.5724 215.044 98.7632 211.805 99.1035C208.737 99.2736 205.327 98.1678 201.577 95.7862C196.292 92.3839 190.581 89.9172 184.444 88.3862C178.307 86.8552 172.085 86.0897 165.777 86.0897C153.674 86.0897 143.445 88.5563 135.092 93.4897C126.739 98.423 120.431 105.568 116.169 114.924C111.908 124.28 109.777 135.763 109.777 149.372C109.777 162.811 111.908 174.294 116.169 183.821C120.431 193.347 126.739 200.577 135.092 205.51C143.445 210.444 153.674 212.91 165.777 212.91C172.255 212.91 178.648 212.145 184.956 210.614C191.263 208.913 197.23 206.361 202.855 202.959C206.606 200.747 209.93 199.811 212.828 200.152C215.897 200.322 218.454 201.343 220.499 203.214C222.545 205.085 223.909 207.467 224.591 210.359C225.273 213.08 225.102 215.972 224.079 219.034C223.057 221.926 221.011 224.478 217.942 226.69C211.123 231.623 202.941 235.451 193.394 238.172C184.018 240.724 174.472 242 164.755 242Z" fill="white"/>
</svg>
